<svg width="768" height="944" viewBox="0 0 768 944" fill="none" xmlns="http://www.w3.org/2000/svg">
<path d="M95.7998 928C51.6998 928 15.7998 892.8 15.7998 849.6V94.4C15.7998 51.2 51.6998 16 95.7998 16H536C557.2 16 577.5 24.3 592.7 39.1L728.5 172.6C743.4 187.1 751.9 207.1 751.8 227.9V849.6C751.8 892.8 715.9 928 671.8 928H95.7998Z" fill="#F5F5F5"/>
<path d="M536.4 31.8999C553.3 31.9999 569.6 38.6999 581.6 50.5999L717.4 184C729.3 195.5 736.1 211.4 736.2 228V849.7C736.2 884.1 707.3 912 672 912H96.0002C60.7002 912 31.9002 883.6 31.9002 849.2V93.9999C31.9002 59.5999 60.9002 31.7999 96.2002 31.7999H536.4M536.2 0.099864H96.0002C43.0002 0.099864 0.200195 42.2999 0.200195 94.3999V849.6C0.200195 901.7 42.7002 944 95.7002 944H671.7C724.7 944 767.8 901.9 767.8 849.8V228.1C767.8 203 757.8 178.9 739.8 161.3L604.1 27.6999C586 9.99986 561.6 -0.000136042 536.2 0.099864Z" fill="#B3B3B3"/>
<path d="M583.8 280C583.8 279.7 583.6 279.4 583.6 278.9C583.6 278.2 583.4 277.5 583.1 276.8C582.9 276.1 582.6 275.4 582.3 274.7C582.1 274 581.8 273.3 581.3 272.8C580.8 272.2 580.3 271.7 579.9 271C579.5 270.4 579 270 578.5 269.6C577.3 268.6 576.1 267.8 574.7 267.2C574.2 266.9 573.7 266.7 573.1 266.6L390.4 190.5L389.8 190.2C385.9 188.5 381.5 188.7 377.7 190.5L195.3 266.6C194.7 266.7 194.2 267 193.7 267.2C192.3 267.8 191 268.6 189.9 269.6C188.8 270.6 187.9 271.6 187 272.8C185.8 274.6 184.9 276.6 184.4 278.7C184.1 279.4 184 280.1 184.1 280.8V481.2C184.2 487.4 188 493 193.7 495.3L377.6 571.5C379.6 572.5 381.8 573 384 572.9C386 572.9 387.9 572.5 389.7 571.8L390.3 571.5L574.4 495.3C580.1 493 583.9 487.5 584 481.3V281C584 280.7 584 280.3 583.8 280ZM384 341.3L240.2 281.6L383.2 222.3L526.8 282L384 341.3ZM552 469.5L392.8 535.4V372L552 305.8V469.5Z" fill="#4B4B4B"/>
<path d="M184.3 278.8C184.8 276.7 185.7 274.7 186.9 272.9C185.5 274.6 184.6 276.6 184.3 278.8ZM191.1 268.5C190.6 268.8 190.2 269.2 189.8 269.6C191 268.6 192.2 267.8 193.6 267.2C192.7 267.5 191.8 267.9 191.1 268.5Z" fill="#4B4B4B"/>
<path d="M577.3 268.5C576.6 267.9 575.7 267.4 574.7 267.2C576.1 267.8 577.4 268.6 578.5 269.6C578.2 269.2 577.8 268.8 577.3 268.5Z" fill="#4B4B4B"/>
<path d="M286.1 751.2C284.9 751 284.6 750.6 284.6 749.3V732.7C284.6 731.7 285 731.2 285.8 731.2H326.8C328 731.2 328.3 731.6 328.3 732.7V802C328.5 803 328.1 803.5 327.1 803.9C314.8 808.5 303.4 809.7 293 809.7C250.2 809.7 230.2 778.1 230.2 739.4C230.2 694.5 257.4 667.2 297.4 667.2C308.4 667.2 318 668.4 324.2 671.4C325.2 671.8 325.4 672.6 325.4 673.7V692C325.4 693 324.8 693.5 323.7 693C316.4 689.3 307.7 687.8 297.3 687.8C268.4 687.6 253.6 706.7 253.6 738.8C253.6 769.2 267.7 789.6 294 789.6C299 789.6 302.3 789.2 305.6 787.9V751.9L286.1 751.2Z" fill="#2C2C2C"/>
<path d="M358.9 807.7C357.4 807.7 357 807.1 357 805.8V670.7C357 669.7 357.4 669 358.5 669H378.5C379.5 669 379.7 669.4 379.7 670.5V787.2H431.7C432.7 787.2 433.2 787.6 432.9 788.7L429.8 806.4C429.6 807.4 429 807.9 427.9 807.9H358.9V807.7Z" fill="#2C2C2C"/>
<path d="M451.3 670.9C451.3 669.9 451.5 669.4 452.3 669.2C458.1 669 473.9 668.6 486.6 668.6C525.1 668.6 531.9 691.1 531.9 704.8C531.9 720.2 524.4 728.7 519 732.9C526.5 736.9 538.1 746.4 538.1 766.2C538.1 792.4 517.1 808.4 485.1 808.2C471.6 808.2 459.3 808 452.7 807.8C451.7 807.6 451.2 807 451.2 806.1V670.9H451.3ZM473.5 725H486.2C492.2 725 498.9 725.4 502 726C506.2 722.3 509.9 716.8 509.9 707.7C509.9 695 501.4 688.4 486.6 688.4C481.6 688.4 476.8 688.6 473.5 688.8V725ZM473.5 788.2C477.2 788.4 480.8 788.6 485.4 788.6C501.8 788.6 514.9 782.4 514.9 766.6C514.9 756.8 509.9 749.5 499.7 746.4C496.2 745.4 492 744.7 487.4 744.7H473.5V788.2Z" fill="#2C2C2C"/>
</svg>
