<svg width="274" height="75" viewBox="0 0 274 75" fill="none" xmlns="http://www.w3.org/2000/svg">
<path d="M13.77 59L1.05 17H10.26L18.15 45.98L26.55 17H35.52L43.92 45.98L51.81 17H60.81L48.09 59H39.18L30.93 30.17L22.59 59H13.77ZM66.0764 59V28.7H74.8364V59H66.0764ZM70.4564 23.9C68.9964 23.9 67.7364 23.45 66.6764 22.55C65.6164 21.63 65.0864 20.41 65.0864 18.89C65.0864 17.35 65.6164 16.13 66.6764 15.23C67.7364 14.31 68.9964 13.85 70.4564 13.85C71.9164 13.85 73.1764 14.31 74.2364 15.23C75.2964 16.13 75.8264 17.35 75.8264 18.89C75.8264 20.41 75.2964 21.63 74.2364 22.55C73.1764 23.45 71.9164 23.9 70.4564 23.9ZM83.3616 59V15.8H92.1216V59H83.3616ZM113.277 59.9C110.357 59.9 107.757 59.23 105.477 57.89C103.217 56.53 101.427 54.64 100.107 52.22C98.8067 49.8 98.1567 47.01 98.1567 43.85C98.1567 41.59 98.5267 39.49 99.2667 37.55C100.027 35.61 101.087 33.91 102.447 32.45C103.807 30.99 105.417 29.85 107.277 29.03C109.137 28.21 111.187 27.8 113.427 27.8C115.887 27.8 118.067 28.29 119.967 29.27C121.887 30.23 123.537 31.64 124.917 33.5L122.937 35.51V15.8H131.697V59H124.077V51.32L125.277 53.3C124.337 55.24 122.847 56.83 120.807 58.07C118.767 59.29 116.257 59.9 113.277 59.9ZM114.897 52.31C116.437 52.31 117.817 51.97 119.037 51.29C120.257 50.59 121.217 49.61 121.917 48.35C122.617 47.09 122.967 45.59 122.967 43.85C122.967 42.11 122.617 40.61 121.917 39.35C121.237 38.09 120.287 37.12 119.067 36.44C117.847 35.74 116.457 35.39 114.897 35.39C113.337 35.39 111.947 35.74 110.727 36.44C109.507 37.12 108.547 38.09 107.847 39.35C107.147 40.61 106.797 42.11 106.797 43.85C106.797 45.59 107.147 47.09 107.847 48.35C108.547 49.61 109.507 50.59 110.727 51.29C111.947 51.97 113.337 52.31 114.897 52.31Z" fill="#1D1D1F"/>
<path d="M190.36 59L206.26 17H216.37L232.51 59H222.52L219.25 50H203.26L200.08 59H190.36ZM205.36 42.5H217.09L211.15 26.72L205.36 42.5ZM238.021 59V17H254.671C257.711 17 260.361 17.51 262.621 18.53C264.901 19.53 266.651 20.98 267.871 22.88C269.111 24.78 269.731 27.05 269.731 29.69C269.731 31.77 269.321 33.6 268.501 35.18C267.681 36.74 266.551 38.04 265.111 39.08C263.691 40.12 262.051 40.87 260.191 41.33L271.951 59H261.361L251.251 43.04H246.901V59H238.021ZM246.901 35.87H253.501C255.781 35.87 257.561 35.41 258.841 34.49C260.141 33.55 260.791 32.13 260.791 30.23C260.791 28.27 260.191 26.8 258.991 25.82C257.811 24.84 256.081 24.35 253.801 24.35H246.901V35.87Z" fill="#6E6E73"/>
<g clip-path="url(#clip0_50_93)">
<path d="M170.03 16.02C169.84 16.02 169.65 15.97 169.47 15.87L163.52 12.43L157.55 15.88C157.01 16.19 156.33 16.01 156.02 15.47C155.71 14.93 155.9 14.24 156.43 13.93L162.95 10.15C163.3 9.95 163.72 9.95 164.07 10.15L170.58 13.92C171.12 14.23 171.3 14.92 170.99 15.46C170.78 15.82 170.4 16.02 170.02 16.02" fill="black"/>
<path d="M163.51 45.65C162.89 45.65 162.39 45.15 162.39 44.53V36.99C162.39 36.37 162.89 35.87 163.51 35.87C164.13 35.87 164.63 36.37 164.63 36.99V44.53C164.63 45.15 164.13 45.65 163.51 45.65Z" fill="black"/>
<path d="M141.12 32.71C140.5 32.71 140 32.2 140 31.58V24.04C140 23.42 140.5 22.92 141.12 22.92C141.74 22.92 142.24 23.42 142.24 24.04V31.58C142.24 32.2 141.74 32.7 141.12 32.7" fill="black"/>
<path d="M185.88 32.71C185.26 32.71 184.76 32.21 184.76 31.59V24.05C184.76 23.43 185.26 22.93 185.88 22.93C186.5 22.93 187 23.43 187 24.05V31.59C187 32.21 186.5 32.71 185.88 32.71Z" fill="black"/>
<path d="M185.88 51.05C185.26 51.05 184.76 50.55 184.76 49.93V42.39C184.76 41.77 185.26 41.27 185.88 41.27C186.5 41.27 187 41.77 187 42.39V49.93C187 50.55 186.5 51.05 185.88 51.05Z" fill="black"/>
<path d="M141.12 51.05C140.5 51.05 140 50.54 140 49.92V42.38C140 41.76 140.5 41.26 141.12 41.26C141.74 41.26 142.24 41.76 142.24 42.38V49.92C142.24 50.54 141.74 51.04 141.12 51.04" fill="black"/>
<path d="M163.51 20.47C162.89 20.47 162.39 19.97 162.39 19.35V11.12C162.39 10.5 162.89 10 163.51 10C164.13 10 164.63 10.5 164.63 11.12V19.34C164.63 19.96 164.13 20.46 163.51 20.46" fill="black"/>
<path d="M163.51 64C162.89 64 162.39 63.5 162.39 62.88V55.34C162.39 54.72 162.89 54.22 163.51 54.22C164.13 54.22 164.63 54.72 164.63 55.34V62.88C164.63 63.5 164.13 64 163.51 64Z" fill="black"/>
<path d="M163.51 64C163.32 64 163.12 63.95 162.95 63.85L156.39 60.06C155.85 59.75 155.67 59.06 155.98 58.52C156.29 57.98 156.98 57.8 157.51 58.11L163.51 61.58L169.42 58.15C169.96 57.84 170.64 58.02 170.95 58.56C171.26 59.1 171.08 59.79 170.54 60.1L164.06 63.85C163.89 63.95 163.69 64 163.5 64" fill="black"/>
<path d="M163.51 38.11C163.32 38.11 163.12 38.06 162.95 37.96L156.42 34.19C155.88 33.88 155.7 33.19 156.01 32.65C156.32 32.11 157.01 31.93 157.54 32.24L163.51 35.69L169.46 32.24C170 31.93 170.68 32.11 170.99 32.65C171.3 33.19 171.12 33.88 170.58 34.19L164.07 37.96C163.9 38.06 163.7 38.11 163.51 38.11Z" fill="black"/>
<path d="M179.35 28.94C178.96 28.94 178.58 28.74 178.38 28.38C178.07 27.84 178.25 27.15 178.79 26.84L185.31 23.07C185.85 22.76 186.53 22.94 186.84 23.48C187.15 24.02 186.97 24.71 186.43 25.02L179.91 28.79C179.73 28.89 179.54 28.94 179.35 28.94Z" fill="black"/>
<path d="M185.87 25.17C185.68 25.17 185.49 25.12 185.31 25.02L178.78 21.25C178.24 20.94 178.06 20.25 178.37 19.72C178.68 19.18 179.37 19 179.9 19.31L186.43 23.08C186.97 23.39 187.15 24.08 186.84 24.62C186.63 24.98 186.25 25.18 185.87 25.18" fill="black"/>
<path d="M147.65 28.94C147.46 28.94 147.27 28.89 147.09 28.79L140.56 25.02C140.02 24.71 139.84 24.02 140.15 23.48C140.46 22.94 141.15 22.76 141.68 23.07L148.2 26.84C148.74 27.15 148.92 27.84 148.61 28.38C148.4 28.74 148.02 28.94 147.64 28.94" fill="black"/>
<path d="M141.12 25.17C140.73 25.17 140.35 24.97 140.15 24.61C139.84 24.07 140.03 23.39 140.56 23.07L147.08 19.31C147.61 19 148.3 19.18 148.61 19.72C148.92 20.26 148.73 20.94 148.2 21.25L141.68 25.01C141.5 25.11 141.31 25.16 141.12 25.16" fill="black"/>
<path d="M179.34 54.82C178.95 54.82 178.57 54.62 178.36 54.26C178.05 53.72 178.24 53.03 178.77 52.73L185.31 48.96C185.85 48.65 186.53 48.83 186.84 49.37C187.15 49.91 186.96 50.6 186.43 50.91L179.89 54.68C179.71 54.78 179.52 54.83 179.33 54.83" fill="black"/>
<path d="M185.88 51.05C185.69 51.05 185.49 51 185.32 50.9L178.79 47.13C178.25 46.82 178.07 46.13 178.38 45.59C178.69 45.05 179.38 44.87 179.91 45.18L186.43 48.95C186.97 49.26 187.15 49.95 186.84 50.49C186.63 50.85 186.25 51.05 185.87 51.05" fill="black"/>
<path d="M147.65 54.82C147.46 54.82 147.27 54.77 147.09 54.67L140.57 50.9C140.03 50.59 139.85 49.9 140.16 49.36C140.47 48.82 141.16 48.64 141.69 48.95L148.21 52.72C148.75 53.03 148.93 53.72 148.62 54.26C148.41 54.62 148.03 54.82 147.65 54.82Z" fill="black"/>
<path d="M141.12 51.05C140.73 51.05 140.35 50.85 140.15 50.49C139.84 49.95 140.02 49.26 140.56 48.96L147.07 45.19C147.61 44.88 148.29 45.06 148.6 45.6C148.91 46.14 148.73 46.83 148.19 47.14L141.68 50.91C141.5 51.01 141.31 51.06 141.12 51.06" fill="black"/>
<g opacity="0.2">
<mask id="mask0_50_93" style="mask-type:luminance" maskUnits="userSpaceOnUse" x="140" y="10" width="25" height="15">
<path d="M164.15 10.48H140.48V24.68H164.15V10.48Z" fill="white"/>
</mask>
<g mask="url(#mask0_50_93)">
<path d="M141.12 24.69C140.9 24.69 140.68 24.58 140.56 24.37C140.38 24.06 140.49 23.67 140.8 23.49L163.19 10.57C163.5 10.39 163.89 10.5 164.07 10.81C164.25 11.12 164.14 11.51 163.83 11.69L141.44 24.6C141.34 24.66 141.23 24.69 141.12 24.69Z" fill="black"/>
</g>
</g>
<g opacity="0.2">
<mask id="mask1_50_93" style="mask-type:luminance" maskUnits="userSpaceOnUse" x="140" y="23" width="47" height="28">
<path d="M186.51 23.4H140.48V50.56H186.51V23.4Z" fill="white"/>
</mask>
<g mask="url(#mask1_50_93)">
<path d="M141.12 50.56C140.9 50.56 140.68 50.45 140.56 50.24C140.38 49.93 140.49 49.54 140.79 49.36L185.55 23.49C185.86 23.31 186.25 23.42 186.42 23.73C186.6 24.04 186.49 24.43 186.18 24.61L141.44 50.48C141.34 50.54 141.23 50.57 141.12 50.57" fill="black"/>
</g>
</g>
<g opacity="0.2">
<mask id="mask2_50_93" style="mask-type:luminance" maskUnits="userSpaceOnUse" x="162" y="10" width="25" height="15">
<path d="M186.51 10.48H162.87V24.68H186.51V10.48Z" fill="white"/>
</mask>
<g mask="url(#mask2_50_93)">
<path d="M185.87 24.69C185.76 24.69 185.65 24.66 185.55 24.6L163.19 11.68C162.88 11.5 162.78 11.11 162.96 10.8C163.13 10.49 163.53 10.39 163.83 10.56L186.19 23.48C186.5 23.66 186.6 24.05 186.43 24.36C186.31 24.57 186.1 24.68 185.87 24.68" fill="black"/>
</g>
</g>
<g opacity="0.2">
<mask id="mask3_50_93" style="mask-type:luminance" maskUnits="userSpaceOnUse" x="140" y="23" width="47" height="28">
<path d="M186.51 23.4H140.48V50.56H186.51V23.4Z" fill="white"/>
</mask>
<g mask="url(#mask3_50_93)">
<path d="M185.88 50.56C185.77 50.56 185.66 50.53 185.56 50.47L140.8 24.6C140.49 24.42 140.39 24.03 140.57 23.72C140.75 23.41 141.14 23.31 141.44 23.48L186.19 49.36C186.5 49.54 186.6 49.93 186.42 50.24C186.3 50.44 186.09 50.56 185.87 50.56" fill="black"/>
</g>
</g>
<g opacity="0.2">
<mask id="mask4_50_93" style="mask-type:luminance" maskUnits="userSpaceOnUse" x="140" y="49" width="25" height="15">
<path d="M164.15 49.28H140.48V63.52H164.15V49.28Z" fill="white"/>
</mask>
<g mask="url(#mask4_50_93)">
<path d="M163.51 63.52C163.4 63.52 163.29 63.49 163.19 63.43L140.8 50.48C140.49 50.3 140.39 49.91 140.57 49.6C140.75 49.29 141.14 49.19 141.44 49.37L163.83 62.32C164.14 62.5 164.24 62.89 164.07 63.2C163.95 63.41 163.74 63.52 163.51 63.52Z" fill="black"/>
</g>
</g>
<g opacity="0.2">
<mask id="mask5_50_93" style="mask-type:luminance" maskUnits="userSpaceOnUse" x="162" y="49" width="25" height="15">
<path d="M186.51 49.28H162.87V63.52H186.51V49.28Z" fill="white"/>
</mask>
<g mask="url(#mask5_50_93)">
<path d="M163.51 63.52C163.29 63.52 163.07 63.41 162.95 63.2C162.77 62.89 162.88 62.5 163.18 62.32L185.54 49.37C185.85 49.19 186.24 49.3 186.42 49.6C186.6 49.91 186.49 50.3 186.19 50.48L163.83 63.43C163.73 63.49 163.62 63.52 163.51 63.52Z" fill="black"/>
</g>
</g>
<g opacity="0.2">
<mask id="mask6_50_93" style="mask-type:luminance" maskUnits="userSpaceOnUse" x="140" y="23" width="2" height="28">
<path d="M141.76 23.4H140.48V50.56H141.76V23.4Z" fill="white"/>
</mask>
<g mask="url(#mask6_50_93)">
<path d="M141.12 50.56C140.77 50.56 140.48 50.27 140.48 49.92V24.04C140.48 23.69 140.77 23.4 141.12 23.4C141.47 23.4 141.76 23.69 141.76 24.04V49.92C141.76 50.27 141.47 50.56 141.12 50.56Z" fill="black"/>
</g>
</g>
<g opacity="0.2">
<mask id="mask7_50_93" style="mask-type:luminance" maskUnits="userSpaceOnUse" x="185" y="23" width="2" height="28">
<path d="M186.51 23.4H185.23V50.56H186.51V23.4Z" fill="white"/>
</mask>
<g mask="url(#mask7_50_93)">
<path d="M185.88 50.56C185.53 50.56 185.24 50.27 185.24 49.92V24.04C185.24 23.69 185.52 23.4 185.88 23.4C186.24 23.4 186.52 23.69 186.52 24.04V49.92C186.52 50.27 186.24 50.56 185.88 50.56Z" fill="black"/>
</g>
</g>
<g opacity="0.2">
<mask id="mask8_50_93" style="mask-type:luminance" maskUnits="userSpaceOnUse" x="162" y="10" width="3" height="54">
<path d="M164.15 10.48H162.87V63.44H164.15V10.48Z" fill="white"/>
</mask>
<g mask="url(#mask8_50_93)">
<path d="M163.51 63.44C163.16 63.44 162.87 63.15 162.87 62.8V11.12C162.87 10.77 163.16 10.48 163.51 10.48C163.86 10.48 164.15 10.77 164.15 11.12V62.8C164.15 63.15 163.86 63.44 163.51 63.44Z" fill="black"/>
</g>
</g>
</g>
<defs>
<clipPath id="clip0_50_93">
<rect width="47" height="54" fill="white" transform="translate(140 10)"/>
</clipPath>
</defs>
</svg>
