<svg width="768" height="944" viewBox="0 0 768 944" fill="none" xmlns="http://www.w3.org/2000/svg">
<path d="M95.7998 928C51.6998 928 15.7998 892.8 15.7998 849.6V94.4C15.7998 51.2 51.6998 16 95.7998 16H536C557.2 16 577.5 24.3 592.7 39.1L728.5 172.6C743.4 187.1 751.9 207.1 751.8 227.9V849.6C751.8 892.8 715.9 928 671.8 928H95.7998Z" fill="#F5F5F5"/>
<path d="M536.4 31.9004C553.3 32.0004 569.6 38.7004 581.6 50.6004L717.4 184C729.3 195.5 736.1 211.4 736.2 228V849.7C736.2 884.1 707.3 912 672 912H96.0002C60.7002 912 31.9002 883.6 31.9002 849.2V94.0004C31.9002 59.6003 60.9002 31.8004 96.2002 31.8004H536.4M536.2 0.100352H96.0002C43.0002 0.100352 0.200195 42.3003 0.200195 94.4003V849.6C0.200195 901.7 42.7002 944 95.7002 944H671.7C724.7 944 767.8 901.9 767.8 849.8V228.1C767.8 203 757.8 178.9 739.8 161.3L604.1 27.7004C586 10.0004 561.6 0.000352239 536.2 0.100352Z" fill="#B3B3B3"/>
<path d="M583.8 280C583.8 279.7 583.6 279.4 583.6 278.9C583.6 278.2 583.4 277.5 583.1 276.8C582.9 276.1 582.6 275.4 582.3 274.7C582.1 274 581.8 273.3 581.3 272.8C580.8 272.2 580.3 271.7 579.9 271C579.5 270.4 579 270 578.5 269.6C577.3 268.6 576.1 267.8 574.7 267.2C574.2 266.9 573.7 266.7 573.1 266.6L390.4 190.5L389.8 190.2C385.9 188.5 381.5 188.7 377.7 190.5L195.3 266.6C194.7 266.7 194.2 267 193.7 267.2C192.3 267.8 191 268.6 189.9 269.6C188.8 270.6 187.9 271.6 187 272.8C185.8 274.6 184.9 276.6 184.4 278.7C184.1 279.4 184 280.1 184.1 280.8V481.2C184.2 487.4 188 493 193.7 495.3L377.6 571.5C379.6 572.5 381.8 573 384 572.9C386 572.9 387.9 572.5 389.7 571.8L390.3 571.5L574.4 495.3C580.1 493 583.9 487.5 584 481.3V281C584 280.7 584 280.3 583.8 280ZM384 341.3L240.2 281.6L383.2 222.3L526.8 282L384 341.3ZM552 469.5L392.8 535.4V372L552 305.8V469.5Z" fill="#4B4B4B"/>
<path d="M184.3 278.8C184.8 276.7 185.7 274.7 186.9 272.9C185.5 274.6 184.6 276.6 184.3 278.8ZM191.1 268.5C190.6 268.8 190.2 269.2 189.8 269.6C191 268.6 192.2 267.8 193.6 267.2C192.7 267.5 191.8 267.9 191.1 268.5Z" fill="#4B4B4B"/>
<path d="M577.3 268.5C576.6 267.9 575.7 267.4 574.7 267.2C576.1 267.8 577.4 268.6 578.5 269.6C578.2 269.2 577.8 268.8 577.3 268.5Z" fill="#4B4B4B"/>
<path d="M203.4 759.3C203.4 779.3 210.1 789.3 230.6 789.3C238.7 789.3 245.6 788.1 249.7 786.6V670.7C249.7 669.7 250.1 669 251.2 669H271C272 669 272.5 669.4 272.5 670.5V783.9C272.5 790.1 272.7 794.3 273.1 798.7C273.3 799.7 272.9 800.2 271.9 800.6C261.5 804.3 245.9 809.8 227.2 809.8C196.4 809.8 180.6 795.7 180.6 762.8V670.9C180.6 669.9 180.8 669.2 182.1 669.2H202.1C203.1 669.2 203.6 669.6 203.6 670.7V759.3H203.4Z" fill="#2C2C2C"/>
<path d="M296.7 802.9C295.9 802.3 295.5 801.4 295.5 800.2V780.2C295.5 779.6 296.3 779 297.2 779.6C306.6 786 317.6 789 328 789C343.2 789 349.4 781.1 349.4 772.2C349.4 764.3 345.4 757.8 330.9 749.3L323.4 745.3C302 733.2 295.7 721 295.7 705.4C295.7 684.2 310.5 667.1 338.3 667.1C350.6 667.1 359.5 669 364.7 671.9C365.7 672.3 365.9 672.9 365.9 674.2V692.9C365.9 693.7 365.1 694.4 364.2 693.7C357.8 689.5 348.4 687.5 338.6 687.5C322.6 687.5 317.4 696.7 317.4 703.9C317.4 711.8 321.4 717.6 335.7 725.5L342.4 729C366.1 742.1 372.1 754.8 372.1 770.4C372.1 793.5 355.3 809.5 327.8 809.5C315.7 809.6 304.4 807.3 296.7 802.9Z" fill="#2C2C2C"/>
<path d="M396 670.9C396 669.9 396.2 669.4 397.5 669.2C402.3 669 416 668.6 430.2 668.6C472.4 668.6 493.4 695.8 493.4 735.8C493.4 791.3 457 808.2 428.9 808.2C418.3 808.2 402.9 808 397.3 807.8C396.5 807.8 396.1 807.2 396.1 806.1V670.9H396ZM418.6 787.8C422.1 788 425.3 788.2 429.2 788.2C452.5 788.2 469.8 771.8 470 736.4C470.2 701.9 452.3 688.6 430.1 688.6C425.7 688.6 422.2 688.8 418.7 689V787.8H418.6Z" fill="#2C2C2C"/>
<path d="M508.1 807.7C507.1 807.7 506.4 807.3 506.4 806V794.1C506.4 793.1 506.6 792.6 507 791.6L568.4 689.5H509.5C508.5 689.5 508 689.1 508.3 687.8L511 670.3C511.2 669.3 511.6 668.8 512.7 668.8H594.9C595.7 668.8 596.1 669.2 596.1 670V682.9C596.1 683.9 595.7 684.8 595.1 686L535 786.9H597C598 786.9 598.5 787.5 598 788.6L595.1 806.1C594.9 807.1 594.3 807.6 593.2 807.6H508.1V807.7Z" fill="#2C2C2C"/>
</svg>
